<svg width="92" height="124" xmlns="http://www.w3.org/2000/svg" viewBox="0 0 92 124" role="img" aria-label="Capa do material: Diretrizes e decisão clínica" style="flex:none;display:block;border-radius:3px"><defs><linearGradient id="clinical-guidelines-cv1b" x1="0" y1="0" x2="1" y2="1"><stop offset="0" stop-color="#410230"></stop><stop offset="1" stop-color="#7A1230"></stop></linearGradient><radialGradient id="clinical-guidelines-cv1g" cx="0.78" cy="0.12" r="0.8"><stop offset="0" stop-color="#FFD596" stop-opacity=".34"></stop><stop offset="1" stop-color="#FFBE78" stop-opacity="0"></stop></radialGradient></defs><rect width="92" height="124" fill="url(#clinical-guidelines-cv1b)"></rect><rect width="92" height="124" fill="url(#clinical-guidelines-cv1g)"></rect><rect x="0" y="0" width="9" height="124" fill="#000" opacity=".28"></rect><rect x="0" y="12" width="9" height="1.6" fill="#E9C48E" opacity=".6"></rect><rect x="0" y="108" width="9" height="1.6" fill="#E9C48E" opacity=".6"></rect><rect x="9" y="0" width="1" height="124" fill="#fff" opacity=".12"></rect><g transform="translate(52 58)" fill="none" stroke="#F1EBE8" stroke-opacity=".92" stroke-width="1.5" stroke-linecap="round" stroke-linejoin="round"><rect x="-22" y="-22" width="9" height="9"></rect><path d="M-9 -18H22" opacity=".7"></path><path d="M-20 -17.5L-18 -15L-14.5 -20"></path><rect x="-22" y="-9" width="9" height="9"></rect><path d="M-9 -5H22" opacity=".7"></path><path d="M-20 -4.5L-18 -2L-14.5 -7"></path><rect x="-22" y="4" width="9" height="9"></rect><path d="M-9 8H22" opacity=".7"></path><path d="M-20 8.5L-18 11L-14.5 6"></path><rect x="-22" y="17" width="9" height="9"></rect><path d="M-9 21H22" opacity=".7"></path></g><path d="M24 104H80" stroke="#E9C48E" stroke-opacity=".5" stroke-width=".8"></path><path d="M52 101.5L54 104L52 106.5L50 104Z" fill="#E9C48E" opacity=".7"></path></svg>