<svg width="470" height="340" xmlns="http://www.w3.org/2000/svg" viewBox="0 0 470 340" preserveAspectRatio="xMaxYMax meet" aria-hidden="true"><defs><clipPath id="hero-hhc"><path d="M70 340 L70 160 C70 96 130 46 235 8 C340 46 400 96 400 160 L400 340 Z"></path></clipPath><radialGradient id="hero-hhg" cx="0.68" cy="0.2" r="0.75"><stop offset="0" stop-color="#FFD596" stop-opacity=".62"></stop><stop offset=".4" stop-color="#FFBE78" stop-opacity=".18"></stop><stop offset="1" stop-color="#FFBE78" stop-opacity="0"></stop></radialGradient><linearGradient id="hero-hhw" x1="0" y1="0" x2="0" y2="1"><stop offset="0" stop-color="#2A0121"></stop><stop offset="1" stop-color="#16000F"></stop></linearGradient></defs><path d="M70 340 L70 160 C70 96 130 46 235 8 C340 46 400 96 400 160 L400 340 Z" fill="url(#hero-hhw)"></path><g clip-path="url(#hero-hhc)"><rect x="70" y="45" width="16" height="55" rx="1" fill="#2E0A22"></rect><rect x="70" y="51" width="16" height="1.6" fill="#E9C48E" opacity=".55"></rect><rect x="70" y="91" width="16" height="1.6" fill="#E9C48E" opacity=".45"></rect><rect x="73" y="61.5" width="10" height="11.0" fill="#000" opacity=".16"></rect><rect x="70" y="45" width="1.5" height="55" fill="#fff" opacity=".10"></rect><rect x="88" y="56" width="18" height="44" rx="1" fill="#F1EBE8"></rect><rect x="88" y="62" width="18" height="1.6" fill="#E9C48E" opacity=".55"></rect><rect x="88" y="91" width="18" height="1.6" fill="#E9C48E" opacity=".45"></rect><rect x="91" y="69.2" width="12" height="8.8" fill="#000" opacity=".16"></rect><rect x="88" y="56" width="1.5" height="44" fill="#fff" opacity=".10"></rect><rect x="108" y="59" width="11" height="41" rx="1" fill="#2E0A22"></rect><rect x="108" y="65" width="11" height="1.6" fill="#E9C48E" opacity=".55"></rect><rect x="108" y="91" width="11" height="1.6" fill="#E9C48E" opacity=".45"></rect><rect x="111" y="71.3" width="5" height="8.2" fill="#000" opacity=".16"></rect><rect x="108" y="59" width="1.5" height="41" fill="#fff" opacity=".10"></rect><rect x="120" y="42" width="17" height="58" rx="1" fill="#8C1535"></rect><rect x="120" y="48" width="17" height="1.6" fill="#E9C48E" opacity=".55"></rect><rect x="120" y="91" width="17" height="1.6" fill="#E9C48E" opacity=".45"></rect><rect x="123" y="59.4" width="11" height="11.6" fill="#000" opacity=".16"></rect><rect x="120" y="42" width="1.5" height="58" fill="#fff" opacity=".10"></rect><rect x="139" y="43" width="19" height="57" rx="1" fill="#F1EBE8"></rect><rect x="139" y="49" width="19" height="1.6" fill="#E9C48E" opacity=".55"></rect><rect x="139" y="91" width="19" height="1.6" fill="#E9C48E" opacity=".45"></rect><rect x="142" y="60.1" width="13" height="11.4" fill="#000" opacity=".16"></rect><rect x="139" y="43" width="1.5" height="57" fill="#fff" opacity=".10"></rect><rect x="158" y="61" width="10" height="39" rx="1" fill="#8C1535"></rect><rect x="158" y="67" width="10" height="1.6" fill="#E9C48E" opacity=".55"></rect><rect x="158" y="91" width="10" height="1.6" fill="#E9C48E" opacity=".45"></rect><rect x="161" y="72.7" width="4" height="7.8" fill="#000" opacity=".16"></rect><rect x="158" y="61" width="1.5" height="39" fill="#fff" opacity=".10"></rect><rect x="168" y="62" width="18" height="38" rx="1" fill="#2E0A22"></rect><rect x="168" y="68" width="18" height="1.6" fill="#E9C48E" opacity=".55"></rect><rect x="168" y="91" width="18" height="1.6" fill="#E9C48E" opacity=".45"></rect><rect x="171" y="73.4" width="12" height="7.6" fill="#000" opacity=".16"></rect><rect x="168" y="62" width="1.5" height="38" fill="#fff" opacity=".10"></rect><rect x="187" y="46" width="12" height="54" rx="1" fill="#410230"></rect><rect x="187" y="52" width="12" height="1.6" fill="#E9C48E" opacity=".55"></rect><rect x="187" y="91" width="12" height="1.6" fill="#E9C48E" opacity=".45"></rect><rect x="190" y="62.2" width="6" height="10.8" fill="#000" opacity=".16"></rect><rect x="187" y="46" width="1.5" height="54" fill="#fff" opacity=".10"></rect><rect x="200" y="60" width="19" height="40" rx="1" fill="#2E0A22"></rect><rect x="200" y="66" width="19" height="1.6" fill="#E9C48E" opacity=".55"></rect><rect x="200" y="91" width="19" height="1.6" fill="#E9C48E" opacity=".45"></rect><rect x="203" y="72.0" width="13" height="8.0" fill="#000" opacity=".16"></rect><rect x="200" y="60" width="1.5" height="40" fill="#fff" opacity=".10"></rect><rect x="220" y="60" width="17" height="40" rx="1" fill="#B0785A"></rect><rect x="220" y="66" width="17" height="1.6" fill="#E9C48E" opacity=".55"></rect><rect x="220" y="91" width="17" height="1.6" fill="#E9C48E" opacity=".45"></rect><rect x="223" y="72.0" width="11" height="8.0" fill="#000" opacity=".16"></rect><rect x="220" y="60" width="1.5" height="40" fill="#fff" opacity=".10"></rect><rect x="238" y="53" width="17" height="47" rx="1" fill="#8C1535"></rect><rect x="238" y="59" width="17" height="1.6" fill="#E9C48E" opacity=".55"></rect><rect x="238" y="91" width="17" height="1.6" fill="#E9C48E" opacity=".45"></rect><rect x="241" y="67.1" width="11" height="9.4" fill="#000" opacity=".16"></rect><rect x="238" y="53" width="1.5" height="47" fill="#fff" opacity=".10"></rect><rect x="255" y="50" width="10" height="50" rx="1" fill="#D62839"></rect><rect x="255" y="56" width="10" height="1.6" fill="#E9C48E" opacity=".55"></rect><rect x="255" y="91" width="10" height="1.6" fill="#E9C48E" opacity=".45"></rect><rect x="258" y="65.0" width="4" height="10.0" fill="#000" opacity=".16"></rect><rect x="255" y="50" width="1.5" height="50" fill="#fff" opacity=".10"></rect><rect x="266" y="62" width="9" height="38" rx="1" fill="#410230"></rect><rect x="266" y="68" width="9" height="1.6" fill="#E9C48E" opacity=".55"></rect><rect x="266" y="91" width="9" height="1.6" fill="#E9C48E" opacity=".45"></rect><rect x="269" y="73.4" width="3" height="7.6" fill="#000" opacity=".16"></rect><rect x="266" y="62" width="1.5" height="38" fill="#fff" opacity=".10"></rect><rect x="275" y="47" width="9" height="53" rx="1" fill="#6A1A3A"></rect><rect x="275" y="53" width="9" height="1.6" fill="#E9C48E" opacity=".55"></rect><rect x="275" y="91" width="9" height="1.6" fill="#E9C48E" opacity=".45"></rect><rect x="278" y="62.9" width="3" height="10.6" fill="#000" opacity=".16"></rect><rect x="275" y="47" width="1.5" height="53" fill="#fff" opacity=".10"></rect><rect x="286" y="42" width="18" height="58" rx="1" fill="#410230"></rect><rect x="286" y="48" width="18" height="1.6" fill="#E9C48E" opacity=".55"></rect><rect x="286" y="91" width="18" height="1.6" fill="#E9C48E" opacity=".45"></rect><rect x="289" y="59.4" width="12" height="11.6" fill="#000" opacity=".16"></rect><rect x="286" y="42" width="1.5" height="58" fill="#fff" opacity=".10"></rect><rect x="305" y="52" width="13" height="48" rx="1" fill="#8C1535"></rect><rect x="305" y="58" width="13" height="1.6" fill="#E9C48E" opacity=".55"></rect><rect x="305" y="91" width="13" height="1.6" fill="#E9C48E" opacity=".45"></rect><rect x="308" y="66.4" width="7" height="9.6" fill="#000" opacity=".16"></rect><rect x="305" y="52" width="1.5" height="48" fill="#fff" opacity=".10"></rect><rect x="320" y="58" width="10" height="42" rx="1" fill="#410230"></rect><rect x="320" y="64" width="10" height="1.6" fill="#E9C48E" opacity=".55"></rect><rect x="320" y="91" width="10" height="1.6" fill="#E9C48E" opacity=".45"></rect><rect x="323" y="70.6" width="4" height="8.4" fill="#000" opacity=".16"></rect><rect x="320" y="58" width="1.5" height="42" fill="#fff" opacity=".10"></rect><rect x="342" y="47" width="16" height="53" rx="1" fill="#F1EBE8"></rect><rect x="342" y="53" width="16" height="1.6" fill="#E9C48E" opacity=".55"></rect><rect x="342" y="91" width="16" height="1.6" fill="#E9C48E" opacity=".45"></rect><rect x="345" y="62.9" width="10" height="10.6" fill="#000" opacity=".16"></rect><rect x="342" y="47" width="1.5" height="53" fill="#fff" opacity=".10"></rect><rect x="358" y="58" width="12" height="42" rx="1" fill="#6A1A3A"></rect><rect x="358" y="64" width="12" height="1.6" fill="#E9C48E" opacity=".55"></rect><rect x="358" y="91" width="12" height="1.6" fill="#E9C48E" opacity=".45"></rect><rect x="361" y="70.6" width="6" height="8.4" fill="#000" opacity=".16"></rect><rect x="358" y="58" width="1.5" height="42" fill="#fff" opacity=".10"></rect><rect x="372" y="56" width="15" height="44" rx="1" fill="#8C1535"></rect><rect x="372" y="62" width="15" height="1.6" fill="#E9C48E" opacity=".55"></rect><rect x="372" y="91" width="15" height="1.6" fill="#E9C48E" opacity=".45"></rect><rect x="375" y="69.2" width="9" height="8.8" fill="#000" opacity=".16"></rect><rect x="372" y="56" width="1.5" height="44" fill="#fff" opacity=".10"></rect><rect x="60" y="100" width="350" height="7" fill="#3A1218"></rect><rect x="60" y="100" width="350" height="1.5" fill="#E9C48E" opacity=".35"></rect><rect x="70" y="125" width="12" height="43" rx="1" fill="#6A1A3A"></rect><rect x="70" y="131" width="12" height="1.6" fill="#E9C48E" opacity=".55"></rect><rect x="70" y="159" width="12" height="1.6" fill="#E9C48E" opacity=".45"></rect><rect x="73" y="137.9" width="6" height="8.6" fill="#000" opacity=".16"></rect><rect x="70" y="125" width="1.5" height="43" fill="#fff" opacity=".10"></rect><rect x="94" y="124" width="11" height="44" rx="1" fill="#2E0A22"></rect><rect x="94" y="130" width="11" height="1.6" fill="#E9C48E" opacity=".55"></rect><rect x="94" y="159" width="11" height="1.6" fill="#E9C48E" opacity=".45"></rect><rect x="97" y="137.2" width="5" height="8.8" fill="#000" opacity=".16"></rect><rect x="94" y="124" width="1.5" height="44" fill="#fff" opacity=".10"></rect><rect x="118" y="120" width="18" height="48" rx="1" fill="#B0785A"></rect><rect x="118" y="126" width="18" height="1.6" fill="#E9C48E" opacity=".55"></rect><rect x="118" y="159" width="18" height="1.6" fill="#E9C48E" opacity=".45"></rect><rect x="121" y="134.4" width="12" height="9.6" fill="#000" opacity=".16"></rect><rect x="118" y="120" width="1.5" height="48" fill="#fff" opacity=".10"></rect><rect x="138" y="124" width="10" height="44" rx="1" fill="#7A1230"></rect><rect x="138" y="130" width="10" height="1.6" fill="#E9C48E" opacity=".55"></rect><rect x="138" y="159" width="10" height="1.6" fill="#E9C48E" opacity=".45"></rect><rect x="141" y="137.2" width="4" height="8.8" fill="#000" opacity=".16"></rect><rect x="138" y="124" width="1.5" height="44" fill="#fff" opacity=".10"></rect><rect x="160" y="119" width="14" height="49" rx="1" fill="#7A1230"></rect><rect x="160" y="125" width="14" height="1.6" fill="#E9C48E" opacity=".55"></rect><rect x="160" y="159" width="14" height="1.6" fill="#E9C48E" opacity=".45"></rect><rect x="163" y="133.7" width="8" height="9.8" fill="#000" opacity=".16"></rect><rect x="160" y="119" width="1.5" height="49" fill="#fff" opacity=".10"></rect><rect x="176" y="115" width="18" height="53" rx="1" fill="#7A1230"></rect><rect x="176" y="121" width="18" height="1.6" fill="#E9C48E" opacity=".55"></rect><rect x="176" y="159" width="18" height="1.6" fill="#E9C48E" opacity=".45"></rect><rect x="179" y="130.9" width="12" height="10.6" fill="#000" opacity=".16"></rect><rect x="176" y="115" width="1.5" height="53" fill="#fff" opacity=".10"></rect><rect x="194" y="110" width="11" height="58" rx="1" fill="#F1EBE8"></rect><rect x="194" y="116" width="11" height="1.6" fill="#E9C48E" opacity=".55"></rect><rect x="194" y="159" width="11" height="1.6" fill="#E9C48E" opacity=".45"></rect><rect x="197" y="127.4" width="5" height="11.6" fill="#000" opacity=".16"></rect><rect x="194" y="110" width="1.5" height="58" fill="#fff" opacity=".10"></rect><rect x="206" y="123" width="18" height="45" rx="1" fill="#410230"></rect><rect x="206" y="129" width="18" height="1.6" fill="#E9C48E" opacity=".55"></rect><rect x="206" y="159" width="18" height="1.6" fill="#E9C48E" opacity=".45"></rect><rect x="209" y="136.5" width="12" height="9.0" fill="#000" opacity=".16"></rect><rect x="206" y="123" width="1.5" height="45" fill="#fff" opacity=".10"></rect><rect x="224" y="124" width="17" height="44" rx="1" fill="#6A1A3A"></rect><rect x="224" y="130" width="17" height="1.6" fill="#E9C48E" opacity=".55"></rect><rect x="224" y="159" width="17" height="1.6" fill="#E9C48E" opacity=".45"></rect><rect x="227" y="137.2" width="11" height="8.8" fill="#000" opacity=".16"></rect><rect x="224" y="124" width="1.5" height="44" fill="#fff" opacity=".10"></rect><rect x="243" y="129" width="15" height="39" rx="1" fill="#D62839"></rect><rect x="243" y="135" width="15" height="1.6" fill="#E9C48E" opacity=".55"></rect><rect x="243" y="159" width="15" height="1.6" fill="#E9C48E" opacity=".45"></rect><rect x="246" y="140.7" width="9" height="7.8" fill="#000" opacity=".16"></rect><rect x="243" y="129" width="1.5" height="39" fill="#fff" opacity=".10"></rect><rect x="270" y="123" width="13" height="45" rx="1" fill="#6A1A3A"></rect><rect x="270" y="129" width="13" height="1.6" fill="#E9C48E" opacity=".55"></rect><rect x="270" y="159" width="13" height="1.6" fill="#E9C48E" opacity=".45"></rect><rect x="273" y="136.5" width="7" height="9.0" fill="#000" opacity=".16"></rect><rect x="270" y="123" width="1.5" height="45" fill="#fff" opacity=".10"></rect><rect x="284" y="115" width="18" height="53" rx="1" fill="#B0785A"></rect><rect x="284" y="121" width="18" height="1.6" fill="#E9C48E" opacity=".55"></rect><rect x="284" y="159" width="18" height="1.6" fill="#E9C48E" opacity=".45"></rect><rect x="287" y="130.9" width="12" height="10.6" fill="#000" opacity=".16"></rect><rect x="284" y="115" width="1.5" height="53" fill="#fff" opacity=".10"></rect><rect x="302" y="126" width="10" height="42" rx="1" fill="#410230"></rect><rect x="302" y="132" width="10" height="1.6" fill="#E9C48E" opacity=".55"></rect><rect x="302" y="159" width="10" height="1.6" fill="#E9C48E" opacity=".45"></rect><rect x="305" y="138.6" width="4" height="8.4" fill="#000" opacity=".16"></rect><rect x="302" y="126" width="1.5" height="42" fill="#fff" opacity=".10"></rect><rect x="314" y="111" width="18" height="57" rx="1" fill="#D62839"></rect><rect x="314" y="117" width="18" height="1.6" fill="#E9C48E" opacity=".55"></rect><rect x="314" y="159" width="18" height="1.6" fill="#E9C48E" opacity=".45"></rect><rect x="317" y="128.1" width="12" height="11.4" fill="#000" opacity=".16"></rect><rect x="314" y="111" width="1.5" height="57" fill="#fff" opacity=".10"></rect><rect x="333" y="130" width="12" height="38" rx="1" fill="#D62839"></rect><rect x="333" y="136" width="12" height="1.6" fill="#E9C48E" opacity=".55"></rect><rect x="333" y="159" width="12" height="1.6" fill="#E9C48E" opacity=".45"></rect><rect x="336" y="141.4" width="6" height="7.6" fill="#000" opacity=".16"></rect><rect x="333" y="130" width="1.5" height="38" fill="#fff" opacity=".10"></rect><rect x="346" y="129" width="12" height="39" rx="1" fill="#8C1535"></rect><rect x="346" y="135" width="12" height="1.6" fill="#E9C48E" opacity=".55"></rect><rect x="346" y="159" width="12" height="1.6" fill="#E9C48E" opacity=".45"></rect><rect x="349" y="140.7" width="6" height="7.8" fill="#000" opacity=".16"></rect><rect x="346" y="129" width="1.5" height="39" fill="#fff" opacity=".10"></rect><rect x="358" y="112" width="17" height="56" rx="1" fill="#F1EBE8"></rect><rect x="358" y="118" width="17" height="1.6" fill="#E9C48E" opacity=".55"></rect><rect x="358" y="159" width="17" height="1.6" fill="#E9C48E" opacity=".45"></rect><rect x="361" y="128.8" width="11" height="11.2" fill="#000" opacity=".16"></rect><rect x="358" y="112" width="1.5" height="56" fill="#fff" opacity=".10"></rect><rect x="375" y="120" width="16" height="48" rx="1" fill="#C9A27A"></rect><rect x="375" y="126" width="16" height="1.6" fill="#E9C48E" opacity=".55"></rect><rect x="375" y="159" width="16" height="1.6" fill="#E9C48E" opacity=".45"></rect><rect x="378" y="134.4" width="10" height="9.6" fill="#000" opacity=".16"></rect><rect x="375" y="120" width="1.5" height="48" fill="#fff" opacity=".10"></rect><rect x="60" y="168" width="350" height="7" fill="#3A1218"></rect><rect x="60" y="168" width="350" height="1.5" fill="#E9C48E" opacity=".35"></rect><rect x="70" y="183" width="9" height="53" rx="1" fill="#D9B58A"></rect><rect x="70" y="189" width="9" height="1.6" fill="#E9C48E" opacity=".55"></rect><rect x="70" y="227" width="9" height="1.6" fill="#E9C48E" opacity=".45"></rect><rect x="73" y="198.9" width="3" height="10.6" fill="#000" opacity=".16"></rect><rect x="70" y="183" width="1.5" height="53" fill="#fff" opacity=".10"></rect><rect x="80" y="179" width="9" height="57" rx="1" fill="#D62839"></rect><rect x="80" y="185" width="9" height="1.6" fill="#E9C48E" opacity=".55"></rect><rect x="80" y="227" width="9" height="1.6" fill="#E9C48E" opacity=".45"></rect><rect x="83" y="196.1" width="3" height="11.4" fill="#000" opacity=".16"></rect><rect x="80" y="179" width="1.5" height="57" fill="#fff" opacity=".10"></rect><rect x="91" y="188" width="13" height="48" rx="1" fill="#F1EBE8"></rect><rect x="91" y="194" width="13" height="1.6" fill="#E9C48E" opacity=".55"></rect><rect x="91" y="227" width="13" height="1.6" fill="#E9C48E" opacity=".45"></rect><rect x="94" y="202.4" width="7" height="9.6" fill="#000" opacity=".16"></rect><rect x="91" y="188" width="1.5" height="48" fill="#fff" opacity=".10"></rect><rect x="104" y="187" width="17" height="49" rx="1" fill="#8C1535"></rect><rect x="104" y="193" width="17" height="1.6" fill="#E9C48E" opacity=".55"></rect><rect x="104" y="227" width="17" height="1.6" fill="#E9C48E" opacity=".45"></rect><rect x="107" y="201.7" width="11" height="9.8" fill="#000" opacity=".16"></rect><rect x="104" y="187" width="1.5" height="49" fill="#fff" opacity=".10"></rect><rect x="121" y="187" width="14" height="49" rx="1" fill="#D62839"></rect><rect x="121" y="193" width="14" height="1.6" fill="#E9C48E" opacity=".55"></rect><rect x="121" y="227" width="14" height="1.6" fill="#E9C48E" opacity=".45"></rect><rect x="124" y="201.7" width="8" height="9.8" fill="#000" opacity=".16"></rect><rect x="121" y="187" width="1.5" height="49" fill="#fff" opacity=".10"></rect><rect x="137" y="198" width="15" height="38" rx="1" fill="#2E0A22"></rect><rect x="137" y="204" width="15" height="1.6" fill="#E9C48E" opacity=".55"></rect><rect x="137" y="227" width="15" height="1.6" fill="#E9C48E" opacity=".45"></rect><rect x="140" y="209.4" width="9" height="7.6" fill="#000" opacity=".16"></rect><rect x="137" y="198" width="1.5" height="38" fill="#fff" opacity=".10"></rect><rect x="152" y="186" width="15" height="50" rx="1" fill="#7A1230"></rect><rect x="152" y="192" width="15" height="1.6" fill="#E9C48E" opacity=".55"></rect><rect x="152" y="227" width="15" height="1.6" fill="#E9C48E" opacity=".45"></rect><rect x="155" y="201.0" width="9" height="10.0" fill="#000" opacity=".16"></rect><rect x="152" y="186" width="1.5" height="50" fill="#fff" opacity=".10"></rect><rect x="167" y="196" width="10" height="40" rx="1" fill="#D62839"></rect><rect x="167" y="202" width="10" height="1.6" fill="#E9C48E" opacity=".55"></rect><rect x="167" y="227" width="10" height="1.6" fill="#E9C48E" opacity=".45"></rect><rect x="170" y="208.0" width="4" height="8.0" fill="#000" opacity=".16"></rect><rect x="167" y="196" width="1.5" height="40" fill="#fff" opacity=".10"></rect><rect x="178" y="188" width="20" height="48" rx="1" fill="#6A1A3A"></rect><rect x="178" y="194" width="20" height="1.6" fill="#E9C48E" opacity=".55"></rect><rect x="178" y="227" width="20" height="1.6" fill="#E9C48E" opacity=".45"></rect><rect x="181" y="202.4" width="14" height="9.6" fill="#000" opacity=".16"></rect><rect x="178" y="188" width="1.5" height="48" fill="#fff" opacity=".10"></rect><rect x="200" y="196" width="17" height="40" rx="1" fill="#C9A27A"></rect><rect x="200" y="202" width="17" height="1.6" fill="#E9C48E" opacity=".55"></rect><rect x="200" y="227" width="17" height="1.6" fill="#E9C48E" opacity=".45"></rect><rect x="203" y="208.0" width="11" height="8.0" fill="#000" opacity=".16"></rect><rect x="200" y="196" width="1.5" height="40" fill="#fff" opacity=".10"></rect><rect x="217" y="183" width="10" height="53" rx="1" fill="#8C1535"></rect><rect x="217" y="189" width="10" height="1.6" fill="#E9C48E" opacity=".55"></rect><rect x="217" y="227" width="10" height="1.6" fill="#E9C48E" opacity=".45"></rect><rect x="220" y="198.9" width="4" height="10.6" fill="#000" opacity=".16"></rect><rect x="217" y="183" width="1.5" height="53" fill="#fff" opacity=".10"></rect><rect x="227" y="183" width="10" height="53" rx="1" fill="#7A1230"></rect><rect x="227" y="189" width="10" height="1.6" fill="#E9C48E" opacity=".55"></rect><rect x="227" y="227" width="10" height="1.6" fill="#E9C48E" opacity=".45"></rect><rect x="230" y="198.9" width="4" height="10.6" fill="#000" opacity=".16"></rect><rect x="227" y="183" width="1.5" height="53" fill="#fff" opacity=".10"></rect><rect x="239" y="187" width="9" height="49" rx="1" fill="#B0785A"></rect><rect x="239" y="193" width="9" height="1.6" fill="#E9C48E" opacity=".55"></rect><rect x="239" y="227" width="9" height="1.6" fill="#E9C48E" opacity=".45"></rect><rect x="242" y="201.7" width="3" height="9.8" fill="#000" opacity=".16"></rect><rect x="239" y="187" width="1.5" height="49" fill="#fff" opacity=".10"></rect><rect x="248" y="182" width="12" height="54" rx="1" fill="#F1EBE8"></rect><rect x="248" y="188" width="12" height="1.6" fill="#E9C48E" opacity=".55"></rect><rect x="248" y="227" width="12" height="1.6" fill="#E9C48E" opacity=".45"></rect><rect x="251" y="198.2" width="6" height="10.8" fill="#000" opacity=".16"></rect><rect x="248" y="182" width="1.5" height="54" fill="#fff" opacity=".10"></rect><rect x="261" y="183" width="16" height="53" rx="1" fill="#410230"></rect><rect x="261" y="189" width="16" height="1.6" fill="#E9C48E" opacity=".55"></rect><rect x="261" y="227" width="16" height="1.6" fill="#E9C48E" opacity=".45"></rect><rect x="264" y="198.9" width="10" height="10.6" fill="#000" opacity=".16"></rect><rect x="261" y="183" width="1.5" height="53" fill="#fff" opacity=".10"></rect><rect x="278" y="192" width="13" height="44" rx="1" fill="#6A1A3A"></rect><rect x="278" y="198" width="13" height="1.6" fill="#E9C48E" opacity=".55"></rect><rect x="278" y="227" width="13" height="1.6" fill="#E9C48E" opacity=".45"></rect><rect x="281" y="205.2" width="7" height="8.8" fill="#000" opacity=".16"></rect><rect x="278" y="192" width="1.5" height="44" fill="#fff" opacity=".10"></rect><rect x="291" y="191" width="15" height="45" rx="1" fill="#7A1230"></rect><rect x="291" y="197" width="15" height="1.6" fill="#E9C48E" opacity=".55"></rect><rect x="291" y="227" width="15" height="1.6" fill="#E9C48E" opacity=".45"></rect><rect x="294" y="204.5" width="9" height="9.0" fill="#000" opacity=".16"></rect><rect x="291" y="191" width="1.5" height="45" fill="#fff" opacity=".10"></rect><rect x="307" y="183" width="11" height="53" rx="1" fill="#D9B58A"></rect><rect x="307" y="189" width="11" height="1.6" fill="#E9C48E" opacity=".55"></rect><rect x="307" y="227" width="11" height="1.6" fill="#E9C48E" opacity=".45"></rect><rect x="310" y="198.9" width="5" height="10.6" fill="#000" opacity=".16"></rect><rect x="307" y="183" width="1.5" height="53" fill="#fff" opacity=".10"></rect><rect x="318" y="193" width="13" height="43" rx="1" fill="#D62839"></rect><rect x="318" y="199" width="13" height="1.6" fill="#E9C48E" opacity=".55"></rect><rect x="318" y="227" width="13" height="1.6" fill="#E9C48E" opacity=".45"></rect><rect x="321" y="205.9" width="7" height="8.6" fill="#000" opacity=".16"></rect><rect x="318" y="193" width="1.5" height="43" fill="#fff" opacity=".10"></rect><rect x="333" y="185" width="12" height="51" rx="1" fill="#6A1A3A"></rect><rect x="333" y="191" width="12" height="1.6" fill="#E9C48E" opacity=".55"></rect><rect x="333" y="227" width="12" height="1.6" fill="#E9C48E" opacity=".45"></rect><rect x="336" y="200.3" width="6" height="10.2" fill="#000" opacity=".16"></rect><rect x="333" y="185" width="1.5" height="51" fill="#fff" opacity=".10"></rect><rect x="347" y="179" width="20" height="57" rx="1" fill="#2E0A22"></rect><rect x="347" y="185" width="20" height="1.6" fill="#E9C48E" opacity=".55"></rect><rect x="347" y="227" width="20" height="1.6" fill="#E9C48E" opacity=".45"></rect><rect x="350" y="196.1" width="14" height="11.4" fill="#000" opacity=".16"></rect><rect x="347" y="179" width="1.5" height="57" fill="#fff" opacity=".10"></rect><rect x="368" y="190" width="9" height="46" rx="1" fill="#7A1230"></rect><rect x="368" y="196" width="9" height="1.6" fill="#E9C48E" opacity=".55"></rect><rect x="368" y="227" width="9" height="1.6" fill="#E9C48E" opacity=".45"></rect><rect x="371" y="203.8" width="3" height="9.2" fill="#000" opacity=".16"></rect><rect x="368" y="190" width="1.5" height="46" fill="#fff" opacity=".10"></rect><rect x="377" y="180" width="13" height="56" rx="1" fill="#D9B58A"></rect><rect x="377" y="186" width="13" height="1.6" fill="#E9C48E" opacity=".55"></rect><rect x="377" y="227" width="13" height="1.6" fill="#E9C48E" opacity=".45"></rect><rect x="380" y="196.8" width="7" height="11.2" fill="#000" opacity=".16"></rect><rect x="377" y="180" width="1.5" height="56" fill="#fff" opacity=".10"></rect><rect x="60" y="236" width="350" height="7" fill="#3A1218"></rect><rect x="60" y="236" width="350" height="1.5" fill="#E9C48E" opacity=".35"></rect><rect x="70" y="266" width="18" height="38" rx="1" fill="#F1EBE8"></rect><rect x="70" y="272" width="18" height="1.6" fill="#E9C48E" opacity=".55"></rect><rect x="70" y="295" width="18" height="1.6" fill="#E9C48E" opacity=".45"></rect><rect x="73" y="277.4" width="12" height="7.6" fill="#000" opacity=".16"></rect><rect x="70" y="266" width="1.5" height="38" fill="#fff" opacity=".10"></rect><rect x="90" y="258" width="9" height="46" rx="1" fill="#410230"></rect><rect x="90" y="264" width="9" height="1.6" fill="#E9C48E" opacity=".55"></rect><rect x="90" y="295" width="9" height="1.6" fill="#E9C48E" opacity=".45"></rect><rect x="93" y="271.8" width="3" height="9.2" fill="#000" opacity=".16"></rect><rect x="90" y="258" width="1.5" height="46" fill="#fff" opacity=".10"></rect><rect x="99" y="263" width="19" height="41" rx="1" fill="#2E0A22"></rect><rect x="99" y="269" width="19" height="1.6" fill="#E9C48E" opacity=".55"></rect><rect x="99" y="295" width="19" height="1.6" fill="#E9C48E" opacity=".45"></rect><rect x="102" y="275.3" width="13" height="8.2" fill="#000" opacity=".16"></rect><rect x="99" y="263" width="1.5" height="41" fill="#fff" opacity=".10"></rect><rect x="118" y="246" width="19" height="58" rx="1" fill="#D9B58A"></rect><rect x="118" y="252" width="19" height="1.6" fill="#E9C48E" opacity=".55"></rect><rect x="118" y="295" width="19" height="1.6" fill="#E9C48E" opacity=".45"></rect><rect x="121" y="263.4" width="13" height="11.6" fill="#000" opacity=".16"></rect><rect x="118" y="246" width="1.5" height="58" fill="#fff" opacity=".10"></rect><rect x="137" y="251" width="12" height="53" rx="1" fill="#B0785A"></rect><rect x="137" y="257" width="12" height="1.6" fill="#E9C48E" opacity=".55"></rect><rect x="137" y="295" width="12" height="1.6" fill="#E9C48E" opacity=".45"></rect><rect x="140" y="266.9" width="6" height="10.6" fill="#000" opacity=".16"></rect><rect x="137" y="251" width="1.5" height="53" fill="#fff" opacity=".10"></rect><rect x="149" y="249" width="16" height="55" rx="1" fill="#8C1535"></rect><rect x="149" y="255" width="16" height="1.6" fill="#E9C48E" opacity=".55"></rect><rect x="149" y="295" width="16" height="1.6" fill="#E9C48E" opacity=".45"></rect><rect x="152" y="265.5" width="10" height="11.0" fill="#000" opacity=".16"></rect><rect x="149" y="249" width="1.5" height="55" fill="#fff" opacity=".10"></rect><rect x="165" y="249" width="14" height="55" rx="1" fill="#C9A27A"></rect><rect x="165" y="255" width="14" height="1.6" fill="#E9C48E" opacity=".55"></rect><rect x="165" y="295" width="14" height="1.6" fill="#E9C48E" opacity=".45"></rect><rect x="168" y="265.5" width="8" height="11.0" fill="#000" opacity=".16"></rect><rect x="165" y="249" width="1.5" height="55" fill="#fff" opacity=".10"></rect><rect x="179" y="259" width="20" height="45" rx="1" fill="#D62839"></rect><rect x="179" y="265" width="20" height="1.6" fill="#E9C48E" opacity=".55"></rect><rect x="179" y="295" width="20" height="1.6" fill="#E9C48E" opacity=".45"></rect><rect x="182" y="272.5" width="14" height="9.0" fill="#000" opacity=".16"></rect><rect x="179" y="259" width="1.5" height="45" fill="#fff" opacity=".10"></rect><rect x="201" y="254" width="20" height="50" rx="1" fill="#F1EBE8"></rect><rect x="201" y="260" width="20" height="1.6" fill="#E9C48E" opacity=".55"></rect><rect x="201" y="295" width="20" height="1.6" fill="#E9C48E" opacity=".45"></rect><rect x="204" y="269.0" width="14" height="10.0" fill="#000" opacity=".16"></rect><rect x="201" y="254" width="1.5" height="50" fill="#fff" opacity=".10"></rect><rect x="223" y="266" width="19" height="38" rx="1" fill="#6A1A3A"></rect><rect x="223" y="272" width="19" height="1.6" fill="#E9C48E" opacity=".55"></rect><rect x="223" y="295" width="19" height="1.6" fill="#E9C48E" opacity=".45"></rect><rect x="226" y="277.4" width="13" height="7.6" fill="#000" opacity=".16"></rect><rect x="223" y="266" width="1.5" height="38" fill="#fff" opacity=".10"></rect><rect x="243" y="260" width="19" height="44" rx="1" fill="#D62839"></rect><rect x="243" y="266" width="19" height="1.6" fill="#E9C48E" opacity=".55"></rect><rect x="243" y="295" width="19" height="1.6" fill="#E9C48E" opacity=".45"></rect><rect x="246" y="273.2" width="13" height="8.8" fill="#000" opacity=".16"></rect><rect x="243" y="260" width="1.5" height="44" fill="#fff" opacity=".10"></rect><rect x="262" y="264" width="15" height="40" rx="1" fill="#B0785A"></rect><rect x="262" y="270" width="15" height="1.6" fill="#E9C48E" opacity=".55"></rect><rect x="262" y="295" width="15" height="1.6" fill="#E9C48E" opacity=".45"></rect><rect x="265" y="276.0" width="9" height="8.0" fill="#000" opacity=".16"></rect><rect x="262" y="264" width="1.5" height="40" fill="#fff" opacity=".10"></rect><rect x="278" y="266" width="20" height="38" rx="1" fill="#D9B58A"></rect><rect x="278" y="272" width="20" height="1.6" fill="#E9C48E" opacity=".55"></rect><rect x="278" y="295" width="20" height="1.6" fill="#E9C48E" opacity=".45"></rect><rect x="281" y="277.4" width="14" height="7.6" fill="#000" opacity=".16"></rect><rect x="278" y="266" width="1.5" height="38" fill="#fff" opacity=".10"></rect><rect x="310" y="249" width="14" height="55" rx="1" fill="#6A1A3A"></rect><rect x="310" y="255" width="14" height="1.6" fill="#E9C48E" opacity=".55"></rect><rect x="310" y="295" width="14" height="1.6" fill="#E9C48E" opacity=".45"></rect><rect x="313" y="265.5" width="8" height="11.0" fill="#000" opacity=".16"></rect><rect x="310" y="249" width="1.5" height="55" fill="#fff" opacity=".10"></rect><rect x="325" y="260" width="9" height="44" rx="1" fill="#D62839"></rect><rect x="325" y="266" width="9" height="1.6" fill="#E9C48E" opacity=".55"></rect><rect x="325" y="295" width="9" height="1.6" fill="#E9C48E" opacity=".45"></rect><rect x="328" y="273.2" width="3" height="8.8" fill="#000" opacity=".16"></rect><rect x="325" y="260" width="1.5" height="44" fill="#fff" opacity=".10"></rect><rect x="336" y="249" width="11" height="55" rx="1" fill="#D9B58A"></rect><rect x="336" y="255" width="11" height="1.6" fill="#E9C48E" opacity=".55"></rect><rect x="336" y="295" width="11" height="1.6" fill="#E9C48E" opacity=".45"></rect><rect x="339" y="265.5" width="5" height="11.0" fill="#000" opacity=".16"></rect><rect x="336" y="249" width="1.5" height="55" fill="#fff" opacity=".10"></rect><rect x="347" y="250" width="17" height="54" rx="1" fill="#2E0A22"></rect><rect x="347" y="256" width="17" height="1.6" fill="#E9C48E" opacity=".55"></rect><rect x="347" y="295" width="17" height="1.6" fill="#E9C48E" opacity=".45"></rect><rect x="350" y="266.2" width="11" height="10.8" fill="#000" opacity=".16"></rect><rect x="347" y="250" width="1.5" height="54" fill="#fff" opacity=".10"></rect><rect x="366" y="264" width="20" height="40" rx="1" fill="#410230"></rect><rect x="366" y="270" width="20" height="1.6" fill="#E9C48E" opacity=".55"></rect><rect x="366" y="295" width="20" height="1.6" fill="#E9C48E" opacity=".45"></rect><rect x="369" y="276.0" width="14" height="8.0" fill="#000" opacity=".16"></rect><rect x="366" y="264" width="1.5" height="40" fill="#fff" opacity=".10"></rect><rect x="60" y="304" width="350" height="7" fill="#3A1218"></rect><rect x="60" y="304" width="350" height="1.5" fill="#E9C48E" opacity=".35"></rect><rect width="470" height="340" fill="url(#hero-hhg)"></rect><polygon points="300,0 235,340 430,340" fill="#FFE2B0" opacity=".06"></polygon><circle cx="300" cy="60" r="1.6" fill="#FFE2B0" opacity=".7"></circle><circle cx="330" cy="98" r="1.2" fill="#FFE2B0" opacity=".7"></circle><circle cx="270" cy="120" r="1.4" fill="#FFE2B0" opacity=".7"></circle><circle cx="350" cy="150" r="1.1" fill="#FFE2B0" opacity=".7"></circle><circle cx="310" cy="200" r="1.3" fill="#FFE2B0" opacity=".7"></circle></g><path d="M70 340 L70 160 C70 96 130 46 235 8 C340 46 400 96 400 160 L400 340 Z" fill="none" stroke="#F1EBE8" stroke-opacity=".38" stroke-width="2"></path><path d="M58 340 L58 160 C58 90 124 36 235 -4 C346 36 412 90 412 160 L412 340" fill="none" stroke="#F1EBE8" stroke-opacity=".14" stroke-width="1.5"></path></svg>