<svg width="350" height="120" xmlns="http://www.w3.org/2000/svg" viewBox="0 0 350 120" preserveAspectRatio="xMidYMax slice" aria-hidden="true"><defs><radialGradient id="mobile-msg" cx="0.8" cy="0.1" r="0.9"><stop offset="0" stop-color="#FFD596" stop-opacity=".55"/><stop offset=".5" stop-color="#FFBE78" stop-opacity=".14"/><stop offset="1" stop-color="#FFBE78" stop-opacity="0"/></radialGradient></defs><rect x="0" y="36" width="18" height="60" rx="1" fill="#D9B58A"/><rect x="0" y="42" width="18" height="1.6" fill="#E9C48E" opacity=".55"/><rect x="0" y="87" width="18" height="1.6" fill="#E9C48E" opacity=".45"/><rect x="3" y="54.0" width="12" height="12.0" fill="#000" opacity=".16"/><rect x="0" y="36" width="1.5" height="60" fill="#fff" opacity=".10"/><rect x="18" y="49" width="12" height="47" rx="1" fill="#F1EBE8"/><rect x="18" y="55" width="12" height="1.6" fill="#E9C48E" opacity=".55"/><rect x="18" y="87" width="12" height="1.6" fill="#E9C48E" opacity=".45"/><rect x="21" y="63.1" width="6" height="9.4" fill="#000" opacity=".16"/><rect x="18" y="49" width="1.5" height="47" fill="#fff" opacity=".10"/><rect x="30" y="28" width="12" height="68" rx="1" fill="#C9A27A"/><rect x="30" y="34" width="12" height="1.6" fill="#E9C48E" opacity=".55"/><rect x="30" y="87" width="12" height="1.6" fill="#E9C48E" opacity=".45"/><rect x="33" y="48.4" width="6" height="13.6" fill="#000" opacity=".16"/><rect x="30" y="28" width="1.5" height="68" fill="#fff" opacity=".10"/><rect x="42" y="39" width="9" height="57" rx="1" fill="#6A1A3A"/><rect x="42" y="45" width="9" height="1.6" fill="#E9C48E" opacity=".55"/><rect x="42" y="87" width="9" height="1.6" fill="#E9C48E" opacity=".45"/><rect x="45" y="56.1" width="3" height="11.4" fill="#000" opacity=".16"/><rect x="42" y="39" width="1.5" height="57" fill="#fff" opacity=".10"/><rect x="52" y="42" width="15" height="54" rx="1" fill="#D62839"/><rect x="52" y="48" width="15" height="1.6" fill="#E9C48E" opacity=".55"/><rect x="52" y="87" width="15" height="1.6" fill="#E9C48E" opacity=".45"/><rect x="55" y="58.2" width="9" height="10.8" fill="#000" opacity=".16"/><rect x="52" y="42" width="1.5" height="54" fill="#fff" opacity=".10"/><rect x="67" y="44" width="16" height="52" rx="1" fill="#F1EBE8"/><rect x="67" y="50" width="16" height="1.6" fill="#E9C48E" opacity=".55"/><rect x="67" y="87" width="16" height="1.6" fill="#E9C48E" opacity=".45"/><rect x="70" y="59.6" width="10" height="10.4" fill="#000" opacity=".16"/><rect x="67" y="44" width="1.5" height="52" fill="#fff" opacity=".10"/><rect x="83" y="39" width="9" height="57" rx="1" fill="#410230"/><rect x="83" y="45" width="9" height="1.6" fill="#E9C48E" opacity=".55"/><rect x="83" y="87" width="9" height="1.6" fill="#E9C48E" opacity=".45"/><rect x="86" y="56.1" width="3" height="11.4" fill="#000" opacity=".16"/><rect x="83" y="39" width="1.5" height="57" fill="#fff" opacity=".10"/><rect x="92" y="32" width="13" height="64" rx="1" fill="#410230"/><rect x="92" y="38" width="13" height="1.6" fill="#E9C48E" opacity=".55"/><rect x="92" y="87" width="13" height="1.6" fill="#E9C48E" opacity=".45"/><rect x="95" y="51.2" width="7" height="12.8" fill="#000" opacity=".16"/><rect x="92" y="32" width="1.5" height="64" fill="#fff" opacity=".10"/><rect x="105" y="40" width="20" height="56" rx="1" fill="#6A1A3A"/><rect x="105" y="46" width="20" height="1.6" fill="#E9C48E" opacity=".55"/><rect x="105" y="87" width="20" height="1.6" fill="#E9C48E" opacity=".45"/><rect x="108" y="56.8" width="14" height="11.2" fill="#000" opacity=".16"/><rect x="105" y="40" width="1.5" height="56" fill="#fff" opacity=".10"/><rect x="138" y="42" width="15" height="54" rx="1" fill="#F1EBE8"/><rect x="138" y="48" width="15" height="1.6" fill="#E9C48E" opacity=".55"/><rect x="138" y="87" width="15" height="1.6" fill="#E9C48E" opacity=".45"/><rect x="141" y="58.2" width="9" height="10.8" fill="#000" opacity=".16"/><rect x="138" y="42" width="1.5" height="54" fill="#fff" opacity=".10"/><rect x="154" y="52" width="13" height="44" rx="1" fill="#7A1230"/><rect x="154" y="58" width="13" height="1.6" fill="#E9C48E" opacity=".55"/><rect x="154" y="87" width="13" height="1.6" fill="#E9C48E" opacity=".45"/><rect x="157" y="65.2" width="7" height="8.8" fill="#000" opacity=".16"/><rect x="154" y="52" width="1.5" height="44" fill="#fff" opacity=".10"/><rect x="168" y="33" width="14" height="63" rx="1" fill="#2E0A22"/><rect x="168" y="39" width="14" height="1.6" fill="#E9C48E" opacity=".55"/><rect x="168" y="87" width="14" height="1.6" fill="#E9C48E" opacity=".45"/><rect x="171" y="51.9" width="8" height="12.6" fill="#000" opacity=".16"/><rect x="168" y="33" width="1.5" height="63" fill="#fff" opacity=".10"/><rect x="183" y="41" width="16" height="55" rx="1" fill="#8C1535"/><rect x="183" y="47" width="16" height="1.6" fill="#E9C48E" opacity=".55"/><rect x="183" y="87" width="16" height="1.6" fill="#E9C48E" opacity=".45"/><rect x="186" y="57.5" width="10" height="11.0" fill="#000" opacity=".16"/><rect x="183" y="41" width="1.5" height="55" fill="#fff" opacity=".10"/><rect x="200" y="30" width="9" height="66" rx="1" fill="#6A1A3A"/><rect x="200" y="36" width="9" height="1.6" fill="#E9C48E" opacity=".55"/><rect x="200" y="87" width="9" height="1.6" fill="#E9C48E" opacity=".45"/><rect x="203" y="49.8" width="3" height="13.2" fill="#000" opacity=".16"/><rect x="200" y="30" width="1.5" height="66" fill="#fff" opacity=".10"/><rect x="209" y="29" width="15" height="67" rx="1" fill="#6A1A3A"/><rect x="209" y="35" width="15" height="1.6" fill="#E9C48E" opacity=".55"/><rect x="209" y="87" width="15" height="1.6" fill="#E9C48E" opacity=".45"/><rect x="212" y="49.1" width="9" height="13.4" fill="#000" opacity=".16"/><rect x="209" y="29" width="1.5" height="67" fill="#fff" opacity=".10"/><rect x="224" y="41" width="20" height="55" rx="1" fill="#7A1230"/><rect x="224" y="47" width="20" height="1.6" fill="#E9C48E" opacity=".55"/><rect x="224" y="87" width="20" height="1.6" fill="#E9C48E" opacity=".45"/><rect x="227" y="57.5" width="14" height="11.0" fill="#000" opacity=".16"/><rect x="224" y="41" width="1.5" height="55" fill="#fff" opacity=".10"/><rect x="244" y="23" width="12" height="73" rx="1" fill="#D9B58A"/><rect x="244" y="29" width="12" height="1.6" fill="#E9C48E" opacity=".55"/><rect x="244" y="87" width="12" height="1.6" fill="#E9C48E" opacity=".45"/><rect x="247" y="44.9" width="6" height="14.6" fill="#000" opacity=".16"/><rect x="244" y="23" width="1.5" height="73" fill="#fff" opacity=".10"/><rect x="257" y="23" width="13" height="73" rx="1" fill="#D62839"/><rect x="257" y="29" width="13" height="1.6" fill="#E9C48E" opacity=".55"/><rect x="257" y="87" width="13" height="1.6" fill="#E9C48E" opacity=".45"/><rect x="260" y="44.9" width="7" height="14.6" fill="#000" opacity=".16"/><rect x="257" y="23" width="1.5" height="73" fill="#fff" opacity=".10"/><rect x="271" y="25" width="9" height="71" rx="1" fill="#D62839"/><rect x="271" y="31" width="9" height="1.6" fill="#E9C48E" opacity=".55"/><rect x="271" y="87" width="9" height="1.6" fill="#E9C48E" opacity=".45"/><rect x="274" y="46.3" width="3" height="14.2" fill="#000" opacity=".16"/><rect x="271" y="25" width="1.5" height="71" fill="#fff" opacity=".10"/><rect x="280" y="29" width="18" height="67" rx="1" fill="#F1EBE8"/><rect x="280" y="35" width="18" height="1.6" fill="#E9C48E" opacity=".55"/><rect x="280" y="87" width="18" height="1.6" fill="#E9C48E" opacity=".45"/><rect x="283" y="49.1" width="12" height="13.4" fill="#000" opacity=".16"/><rect x="280" y="29" width="1.5" height="67" fill="#fff" opacity=".10"/><rect x="299" y="18" width="20" height="78" rx="1" fill="#D62839"/><rect x="299" y="24" width="20" height="1.6" fill="#E9C48E" opacity=".55"/><rect x="299" y="87" width="20" height="1.6" fill="#E9C48E" opacity=".45"/><rect x="302" y="41.4" width="14" height="15.6" fill="#000" opacity=".16"/><rect x="299" y="18" width="1.5" height="78" fill="#fff" opacity=".10"/><rect x="320" y="41" width="13" height="55" rx="1" fill="#D62839"/><rect x="320" y="47" width="13" height="1.6" fill="#E9C48E" opacity=".55"/><rect x="320" y="87" width="13" height="1.6" fill="#E9C48E" opacity=".45"/><rect x="323" y="57.5" width="7" height="11.0" fill="#000" opacity=".16"/><rect x="320" y="41" width="1.5" height="55" fill="#fff" opacity=".10"/><rect x="333" y="22" width="13" height="74" rx="1" fill="#F1EBE8"/><rect x="333" y="28" width="13" height="1.6" fill="#E9C48E" opacity=".55"/><rect x="333" y="87" width="13" height="1.6" fill="#E9C48E" opacity=".45"/><rect x="336" y="44.2" width="7" height="14.8" fill="#000" opacity=".16"/><rect x="333" y="22" width="1.5" height="74" fill="#fff" opacity=".10"/><rect x="0" y="96" width="350" height="8" fill="#3A1218"/><rect x="0" y="96" width="350" height="1.6" fill="#E9C48E" opacity=".4"/><rect x="0" y="104" width="350" height="16" fill="#16000F"/><rect width="350" height="120" fill="url(#mobile-msg)"/></svg>