<svg width="92" height="124" xmlns="http://www.w3.org/2000/svg" viewBox="0 0 92 124" role="img" aria-label="Capa do material: Nutrição baseada em evidências" style="flex:none;display:block;border-radius:3px"><defs><linearGradient id="nutrition-evidence-cv3b" x1="0" y1="0" x2="1" y2="1"><stop offset="0" stop-color="#2A0121"></stop><stop offset="1" stop-color="#5E0E2B"></stop></linearGradient><radialGradient id="nutrition-evidence-cv3g" cx="0.78" cy="0.12" r="0.8"><stop offset="0" stop-color="#FFD596" stop-opacity=".34"></stop><stop offset="1" stop-color="#FFBE78" stop-opacity="0"></stop></radialGradient></defs><rect width="92" height="124" fill="url(#nutrition-evidence-cv3b)"></rect><rect width="92" height="124" fill="url(#nutrition-evidence-cv3g)"></rect><rect x="0" y="0" width="9" height="124" fill="#000" opacity=".28"></rect><rect x="0" y="12" width="9" height="1.6" fill="#E9C48E" opacity=".6"></rect><rect x="0" y="108" width="9" height="1.6" fill="#E9C48E" opacity=".6"></rect><rect x="9" y="0" width="1" height="124" fill="#fff" opacity=".12"></rect><g transform="translate(52 58)" fill="none" stroke="#F1EBE8" stroke-opacity=".92" stroke-width="1.5" stroke-linecap="round" stroke-linejoin="round"><path d="M-16 16C-16 -6 2 -22 22 -22C22 0 8 20 -16 16Z"></path><path d="M-16 16L8 -8"></path><path d="M-16 16L-22 22" opacity=".8"></path></g><path d="M24 104H80" stroke="#E9C48E" stroke-opacity=".5" stroke-width=".8"></path><path d="M52 101.5L54 104L52 106.5L50 104Z" fill="#E9C48E" opacity=".7"></path></svg>