<svg width="92" height="124" xmlns="http://www.w3.org/2000/svg" viewBox="0 0 92 124" role="img" aria-label="Capa do material: Fundamentos e perguntas clínicas" style="flex:none;display:block;border-radius:3px"><defs><linearGradient id="pico-foundations-cv5b" x1="0" y1="0" x2="1" y2="1"><stop offset="0" stop-color="#410230"></stop><stop offset="1" stop-color="#7A1230"></stop></linearGradient><radialGradient id="pico-foundations-cv5g" cx="0.78" cy="0.12" r="0.8"><stop offset="0" stop-color="#FFD596" stop-opacity=".34"></stop><stop offset="1" stop-color="#FFBE78" stop-opacity="0"></stop></radialGradient></defs><rect width="92" height="124" fill="url(#pico-foundations-cv5b)"></rect><rect width="92" height="124" fill="url(#pico-foundations-cv5g)"></rect><rect x="0" y="0" width="9" height="124" fill="#000" opacity=".28"></rect><rect x="0" y="12" width="9" height="1.6" fill="#E9C48E" opacity=".6"></rect><rect x="0" y="108" width="9" height="1.6" fill="#E9C48E" opacity=".6"></rect><rect x="9" y="0" width="1" height="124" fill="#fff" opacity=".12"></rect><g transform="translate(52 58)" fill="none" stroke="#F1EBE8" stroke-opacity=".92" stroke-width="1.5" stroke-linecap="round" stroke-linejoin="round"><rect x="-20" y="-20" width="18" height="18"></rect><text x="-11" y="-7" text-anchor="middle" font-family="Inter,sans-serif" font-size="11" font-weight="600" fill="#F1EBE8" stroke="none">P</text><rect x="2" y="-20" width="18" height="18"></rect><text x="11" y="-7" text-anchor="middle" font-family="Inter,sans-serif" font-size="11" font-weight="600" fill="#F1EBE8" stroke="none">I</text><rect x="-20" y="2" width="18" height="18"></rect><text x="-11" y="15" text-anchor="middle" font-family="Inter,sans-serif" font-size="11" font-weight="600" fill="#F1EBE8" stroke="none">C</text><rect x="2" y="2" width="18" height="18"></rect><text x="11" y="15" text-anchor="middle" font-family="Inter,sans-serif" font-size="11" font-weight="600" fill="#F1EBE8" stroke="none">O</text></g><path d="M24 104H80" stroke="#E9C48E" stroke-opacity=".5" stroke-width=".8"></path><path d="M52 101.5L54 104L52 106.5L50 104Z" fill="#E9C48E" opacity=".7"></path></svg>